<svg width="102" height="102" viewBox="0 0 102 102" fill="none" xmlns="http://www.w3.org/2000/svg">
<path d="M101.272 2.07495C101.251 1.34169 100.664 0.754053 99.9303 0.733252C67.3188 -0.244417 34.6865 -0.244417 2.07495 0.733252C1.34169 0.754053 0.754053 1.34169 0.733252 2.07495C-0.244417 34.6865 -0.244417 67.3188 0.733252 99.9251C0.754053 100.658 1.34169 101.246 2.07495 101.267C34.6865 102.244 67.3136 102.244 99.9251 101.267C100.658 101.246 101.246 100.658 101.267 99.9251C102.244 67.3136 102.244 34.6813 101.267 2.07495H101.272ZM89.1759 52.4925C78.6296 69.2793 64.4742 76.1074 51.0052 76.1074C37.5363 76.1074 23.3757 69.2793 12.8345 52.4925C12.2625 51.5824 12.2625 50.4228 12.8345 49.5179C23.3809 32.7311 37.5363 25.903 51.0052 25.903C64.4742 25.903 78.6348 32.7311 89.1759 49.5179C89.7479 50.428 89.7479 51.5876 89.1759 52.4925Z" fill="#FE4C16"/>
<path d="M63.8432 39.2097C63.23 39.8229 62.7379 40.5573 62.4295 41.3651C61.5115 43.752 62.0439 45.2832 63.2666 47.1669L64.2764 48.7201L62.7232 47.7104C60.3254 46.1498 57.2336 46.1498 54.8357 47.7105L53.2824 48.7203L54.2923 47.167C55.8529 44.7692 55.8529 41.6773 54.2924 39.2796L53.2826 37.7263L54.8358 38.7361C56.7195 39.9588 58.2471 40.4949 60.6376 39.5732C61.4491 39.2611 62.1798 38.7727 62.7931 38.1595C63.0281 37.9245 63.0207 37.5352 62.771 37.3223C59.4626 34.4765 55.1113 32.8058 50.3708 32.9711C40.9557 33.3017 33.3069 40.98 33.0057 50.395C32.6714 60.8124 41.1866 69.3277 51.6078 68.9971C61.0228 68.6958 68.701 61.047 69.0316 51.632C69.2006 46.8877 67.5299 42.5364 64.6841 39.228C64.4675 38.9746 64.0819 38.971 63.8469 39.206L63.8432 39.2097Z" fill="#FE4C16"/>
</svg>
